<svg xmlns:xlink="http://www.w3.org/1999/xlink" xmlns="http://www.w3.org/2000/svg" width="120" height="120">
    <defs>
        <linearGradient id="linear-gradient"
                        x1="72.92"
                        y1="137.03"
                        x2="72.92"
                        y2="-22.58"
                        gradientUnits="userSpaceOnUse">
            <stop offset="0" stop-color="#00aeef"/>
            <stop offset="0.19" stop-color="#02aded"/>
            <stop offset="0.26" stop-color="#09a9e8"/>
            <stop offset="0.3" stop-color="#14a1dd"/>
            <stop offset="0.34" stop-color="#2597cf"/>
            <stop offset="0.38" stop-color="#3b89bc"/>
            <stop offset="0.41" stop-color="#5779a5"/>
            <stop offset="0.43" stop-color="#776589"/>
            <stop offset="0.46" stop-color="#9d4d69"/>
            <stop offset="0.48" stop-color="#c63446"/>
            <stop offset="0.5" stop-color="#ed1c24"/>
            <stop offset="0.5" stop-color="#e6202d"/>
            <stop offset="0.53" stop-color="#cb2e4c"/>
            <stop offset="0.57" stop-color="#b53a68"/>
            <stop offset="0.61" stop-color="#a2447e"/>
            <stop offset="0.65" stop-color="#944c8f"/>
            <stop offset="0.71" stop-color="#8a519a"/>
            <stop offset="0.78" stop-color="#8554a1"/>
            <stop offset="1" stop-color="#8355a3"/>
        </linearGradient>
        <linearGradient id="grad1" x1="0%" x2="0%" y1="0%" y2="100%">
            <stop offset="0" stop-color="#00aeef"/>
            <stop offset="0.19" stop-color="#02aded"/>
            <stop offset="0.26" stop-color="#09a9e8"/>
            <stop offset="0.3" stop-color="#14a1dd"/>
            <stop offset="0.34" stop-color="#2597cf"/>
            <stop offset="0.38" stop-color="#3b89bc"/>
            <stop offset="0.41" stop-color="#5779a5"/>
            <stop offset="0.43" stop-color="#776589"/>
            <stop offset="0.46" stop-color="#9d4d69"/>
            <stop offset="0.48" stop-color="#c63446"/>
            <stop offset="0.5" stop-color="#ed1c24"/>
            <stop offset="0.51" stop-color="#e6202d"/>
            <stop offset="0.53" stop-color="#cb2e4c"/>
            <stop offset="0.57" stop-color="#b53a68"/>
            <stop offset="0.61" stop-color="#a2447e"/>
            <stop offset="0.65" stop-color="#944c8f"/>
            <stop offset="0.71" stop-color="#8a519a"/>
            <stop offset="0.78" stop-color="#8554a1"/>
            <stop offset="1" stop-color="#8355a3"/>
        </linearGradient>
        <g id="beat">
            <polyline fill="none" points="0, 36 5.7, 36 7.7, 44 10, 21.75 13.65, 51 15.6, 36 21.3, 36"/>
        </g>
    </defs>
    <g id="chart" transform="translate(-13 2), scale(1.05)">
        <g>
            <polygon id="chart-background"
                     fill="url(#grad1)"
                     points="110.96 99.57 98.33 109.63 82.99 103.82 78.38 97.74 32.36 97.74 33.77 18.3 56.83 18.78 58.84 5.23 64.48 2.25 70.84 4.64 74.08 19.14 96.13 19.6 96.03 71.94 103.54 73.64 110.6 80.56 113.47 89.68 110.96 99.57"/>
            <path id="chart-outline"
                  d="M96.6,80.7c0-14.66.18-33.05.13-47.6a8.76,8.76,0,0,0-7.92-8.53c-2.33-.18-4.68-.09-7-.13-.34,0-.68,0-1-.05,0-.34,0-.55,0-.77,0-2.68-1-3.57-3.63-3.56-1.81,0-3.61,0-5.4,0-.81-5.58-4-9.07-8.54-9.44A9.34,9.34,0,0,0,57,12.17a9.78,9.78,0,0,0-4.29,7.9c-2.17,0-4.22,0-6.28,0a2.66,2.66,0,0,0-2.72,2.7c0,.52,0,1.05,0,1.69-.62,0-1.07,0-1.53,0-2.16,0-4.34,0-6.49.09a8.68,8.68,0,0,0-7.94,7.79c-.2,2.57-.15,5.15-.15,7.73q0,30.66,0,61.33c0,6,3.77,9.72,9.66,9.73H59.83c3.46,0,10.64,0,15,0A20.59,20.59,0,1,0,96.6,80.7ZM62.34,15.6a4.47,4.47,0,0,1-.28,8.94,4.47,4.47,0,0,1,.28-8.94ZM37.1,105.1c-1.76,0-2.92-.67-3.31-2a6.74,6.74,0,0,1-.18-1.91q0-24,0-47.91,0-9.72,0-19.44c0-2.25,1.09-3.33,3.35-3.33,1.88,0,3.76,0,5.64,0,.34,0,.68,0,1.08.07,0,.63,0,1.17,0,1.7,0,2.33,1,3.33,3.28,3.35H77.43c2.29,0,3.28-1,3.29-3.38,0-.56,0-1.11,0-1.75h6.43c2.61,0,3.64,1.06,3.64,3.73q0,20.74,0,41.47v4.67a20.76,20.76,0,0,0-18.68,20.45,20,20,0,0,0,.4,4.25Zm55.62,11.67c-8.86-.08-15.65-7.15-15.58-16.25A15.65,15.65,0,0,1,92.69,85.34c8.9.08,15.68,7.13,15.58,16.23A15.72,15.72,0,0,1,92.72,116.77Z"
                  transform="translate(2.32 -10.59)"/>
            <path id="check-mark"
                  d="M90.45,103.41l5.1-6.83c.88-1.17,1.74-2.35,2.63-3.5a2.43,2.43,0,0,1,3.56-.61,2.49,2.49,0,0,1,.42,3.61q-4.77,6.45-9.61,12.85c-1.26,1.66-3,1.62-4.26-.05-1.69-2.21-3.35-4.44-5-6.68a2.51,2.51,0,0,1,.39-3.69,2.42,2.42,0,0,1,3.55.64C88.3,100.52,89.33,101.92,90.45,103.41Z"
                  transform="translate(2.32 -10.59)"/>
        </g>
        <g id="beat-line" stroke="black" stroke-width="1.5" transform="translate(35 20.4)">
            <use xlink:href="#beat"/>
            <use xlink:href="#beat" transform="translate(37 0)"/>
            <line x1="21" y1="36" x2="37.1" y2="36"/>
        </g>
        <path id="cross"
              d="M48, 51.9h11v-11h11v11h11v11h-11v11h-11v-11h-11Z"
              fill="white"
              stroke="black"
              stroke-miterlimit="10"/>
    </g>
</svg>
