<svg xmlns:xlink="http://www.w3.org/1999/xlink" xmlns="http://www.w3.org/2000/svg" width="1200" height="135">
    <!--
    Copyright (c) 2019 ChartItMD Development Group

    Original artwork by Bradley Bunney
    Edited by Michael Cummings
    -->
    <defs>
        <linearGradient id="linear-gradient-2"
                        x1="702.5"
                        y1="163.15"
                        x2="702.5"
                        y2="-27.1"
                        gradientUnits="userSpaceOnUse">
            <stop offset="0" stop-color="#00aeef"/>
            <stop offset="0.19" stop-color="#02aded"/>
            <stop offset="0.26" stop-color="#09a9e8"/>
            <stop offset="0.3" stop-color="#14a1dd"/>
            <stop offset="0.34" stop-color="#2597cf"/>
            <stop offset="0.38" stop-color="#3b89bc"/>
            <stop offset="0.41" stop-color="#5779a5"/>
            <stop offset="0.43" stop-color="#776589"/>
            <stop offset="0.46" stop-color="#9d4d69"/>
            <stop offset="0.48" stop-color="#c63446"/>
            <stop offset="0.5" stop-color="#ed1c24"/>
            <stop offset="0.5" stop-color="#e6202d"/>
            <stop offset="0.53" stop-color="#cb2e4c"/>
            <stop offset="0.57" stop-color="#b53a68"/>
            <stop offset="0.61" stop-color="#a2447e"/>
            <stop offset="0.65" stop-color="#944c8f"/>
            <stop offset="0.71" stop-color="#8a519a"/>
            <stop offset="0.78" stop-color="#8554a1"/>
            <stop offset="1" stop-color="#8355a3"/>
        </linearGradient>
        <filter id="drop-shadow1" width="175%" height="175%">
            <feOffset result="offOut" in="SourceGraphic" dx="1" dy="3"/>
            <feColorMatrix result="matrixOut"
                           in="offOut"
                           type="matrix"
                           values="0.4 0 0 0 0 0 0.4 0 0 0 0 0 0.4 0 0 0 0 0 1 0"/>
            <feGaussianBlur result="blurOut" in="matrixOut" stdDeviation="1.25"/>
            <feBlend in="SourceGraphic" in2="blurOut" mode="normal"/>
        </filter>
        <filter id="drop-shadow2" width="175%" height="175%">
            <feOffset result="offOut" in="SourceGraphic" dx="-3" dy="3"/>
            <feColorMatrix result="matrixOut"
                           in="offOut"
                           type="matrix"
                           values="0.1 0 0 0 0 0 0.1 0 0 0 0 0 0.1 0 0 0 0 0 1 0"/>
            <feGaussianBlur result="blurOut" in="matrixOut" stdDeviation="2"/>
            <feBlend in="SourceGraphic" in2="blurOut" mode="normal"/>
        </filter>
        <filter id="drop-shadow3" width="175%" height="175%">
            <feOffset result="offOut" in="SourceGraphic" dx="3" dy="3"/>
            <feColorMatrix result="matrixOut"
                           in="offOut"
                           type="matrix"
                           values="0.1 0 0 0 0 0 0.1 0 0 0 0 0 0.1 0 0 0 0 0 1 0"/>
            <feGaussianBlur result="blurOut" in="matrixOut" stdDeviation="2"/>
            <feBlend in="SourceGraphic" in2="blurOut" mode="normal"/>
        </filter>
        <polyline id="beat" stroke-miterlimit="10" points="0, 16  28.5, 16 34.5, 34 42, -20 53.5, 57 58.5, 16 87, 16"/>
    </defs>
    <title>Chart It MD banner 2019</title>
    <g id="chart-it-md-banner">
        <rect id="background"
              x="3"
              y="3"
              fill="url(#linear-gradient-2)"
              stroke="black"
              stroke-width="5"
              width="1195"
              height="128"
              rx="12"
              ry="12"/>
        <g id="left-beats" fill="none" stroke="#20a020" stroke-width="2">
            <use xlink:href="#beat" transform="translate(108.5, 51)"/>
            <use xlink:href="#beat" transform="translate(195, 51)"/>
            <line x1="5.1" y1="67" x2="109" y2="67"/>
        </g>
        <g id="right-beats" fill="none" stroke="#20a020" stroke-width="2">
            <line x1="281" y1="67" x2="881" y2="67"/>
            <use xlink:href="#beat" transform="translate(880.5, 51)"/>
            <use xlink:href="#beat" transform="translate(966.5, 51)"/>
            <line x1="1053" y1="67" x2="1195.75" y2="67"/>
        </g>
        <g id="chart" transform="translate(-55 -42.9)" filter="url(#drop-shadow2)">
            <path fill="white"
                  d="M105.58,71.77H87.84L84,79.1v68.46l9,5h34.19s22.06,25.18,34.67-9.1c-1.69-8.13-5.24-16.93-12.2-17.91l-2.1-1-1-48.41-4.37-4.4-17.77-1.23-4-11L115,56.85l-6.54,2.74Z"/>
            <path d="M124.43,155.13H90.09c-5.89,0-9.66-3.75-9.66-9.72q0-30.66,0-61.33c0-2.58-.06-5.17.14-7.73a8.68,8.68,0,0,1,7.94-7.79c2.16-.14,4.33-.07,6.5-.1h1.53c0-.63,0-1.16,0-1.68a2.65,2.65,0,0,1,2.72-2.7c2,0,4.11,0,6.27,0a9.81,9.81,0,0,1,4.3-7.9A9.32,9.32,0,0,1,116,54.62c4.54.37,7.73,3.86,8.55,9.44h5.39c2.68,0,3.58.87,3.63,3.56,0,.21,0,.43.05.77l1,0c2.34,0,4.7,0,7,.13a8.77,8.77,0,0,1,7.92,8.52c0,14.76,0,29.51,0,44.26a2.11,2.11,0,0,1,0,.33l-5.91-.83V78.25c0-2.67-1-3.73-3.64-3.73h-6.43v1.75c0,2.33-1,3.37-3.29,3.37H106.09c-2.09,0-4.19,0-6.28,0-2.32,0-3.29-1-3.28-3.34V74.59c-.4,0-.74-.06-1.08-.07H89.8c-2.25,0-3.35,1.09-3.35,3.34v67.35a6.74,6.74,0,0,0,.19,1.91c.39,1.31,1.55,2,3.3,2H114c2.38,0,4.76,0,7.14,0,.75,0,1,.27,1.22.95C123,151.71,123.69,153.33,124.43,155.13Zm-5-91a4.39,4.39,0,0,0-4.21-4.5,4.47,4.47,0,0,0-.28,8.94A4.39,4.39,0,0,0,119.4,64.1Z"/>
            <path d="M164.22,143.61a20.82,20.82,0,0,1-21.51,20.6c-10.69-.35-19.87-10-19.66-21a20.59,20.59,0,1,1,41.17.36Zm-20.6-15.86a15.67,15.67,0,0,0-15.55,15.18c-.07,9.1,6.72,16.18,15.58,16.25A15.73,15.73,0,0,0,159.21,144C159.3,134.88,152.53,127.83,143.62,127.75Z"/>
            <path fill="#ed1c24"
                  d="M118.33,102.76h-6.59V96.65h-4.47c-2,0-1.67.1-1.68-1.63s0-3.21,0-5h6.09V83.9h6.59V90h6.13V96.6h-6.06Z"/>
            <path d="M122.76,113.54c-3.55,0-7.09,0-10.64,0a2.45,2.45,0,0,1-2.49-2.06,2.49,2.49,0,0,1,1.27-2.61,3.36,3.36,0,0,1,1.43-.32c7,0,14,0,21,0A2.49,2.49,0,0,1,136,111a2.43,2.43,0,0,1-2.56,2.55c-3.55,0-7.09,0-10.64,0Z"/>
            <path d="M135.46,122.19c-2.29,1.53-4.27,2.88-6.28,4.19a2,2,0,0,1-1,.21H112.43a2.51,2.51,0,1,1,0-5c6.88,0,13.76,0,20.64,0A10.61,10.61,0,0,1,135.46,122.19Z"/>
            <path d="M123,134.68l-1.45,5H115.2c-1.07,0-2.13,0-3.19,0a2.53,2.53,0,0,1-2.42-2.39,2.4,2.4,0,0,1,2.21-2.56C115.51,134.63,119.22,134.68,123,134.68Z"/>
            <path d="M99,124.09l4.45-6c.17-.23.33-.47.52-.68a1.5,1.5,0,0,1,2.11-.26,1.47,1.47,0,0,1,.37,2.17q-3.06,4.18-6.22,8.3a1.46,1.46,0,0,1-2.46,0c-1.18-1.47-2.3-3-3.39-4.53a1.5,1.5,0,0,1,.38-2.17,1.48,1.48,0,0,1,2.1.28C97.59,122.15,98.24,123.09,99,124.09Z"/>
            <path d="M99,136.86c1.63-2.18,3.18-4.27,4.75-6.35.76-1,1.79-1.16,2.53-.36a1.47,1.47,0,0,1,.14,2c-2,2.75-4.08,5.5-6.16,8.22a1.5,1.5,0,0,1-2.54,0c-1.13-1.43-2.21-2.9-3.27-4.37a1.57,1.57,0,0,1,.28-2.28,1.51,1.51,0,0,1,2.24.4C97.64,135,98.26,135.89,99,136.86Z"/>
            <path d="M99,111.32l4.68-6.25c.77-1,1.63-1.23,2.44-.62s.86,1.47.08,2.53c-1.92,2.57-3.83,5.14-5.77,7.69-.91,1.21-2,1.21-2.87,0s-2-2.67-3-4a1.6,1.6,0,0,1,.21-2.44c.78-.56,1.57-.4,2.29.52S98.29,110.38,99,111.32Z"/>
            <path d="M141.38,145.82l5.11-6.83c.88-1.17,1.74-2.35,2.63-3.5a2.42,2.42,0,0,1,3.55-.61,2.49,2.49,0,0,1,.43,3.61c-3.19,4.3-6.38,8.59-9.61,12.85-1.26,1.66-3,1.62-4.27,0q-2.52-3.33-5-6.68a2.52,2.52,0,0,1,.39-3.7,2.41,2.41,0,0,1,3.54.64C139.24,142.93,140.26,144.33,141.38,145.82Z"/>
        </g>
        <g id="text" filter="url(#drop-shadow1)">
            <text transform="scale(1.45 1.1)"
                  textLength="410"
                  x="190"
                  y="86"
                  stroke="black"
                  stroke-width="3"
                  fill="white"
                  font-family="source code pro"
                  font-size="86"
                  font-weight="900">
                <tspan>Chart</tspan>
                <tspan>It</tspan>
                <tspan>MD</tspan>
            </text>
        </g>
        <g id="computer" transform="translate(1100 60)" filter="url(#drop-shadow3)">
            <path d="m-50,37c0-.45-.09-.82-.09-1.18q0-36.33,0-72.65c0-3.31,1.72-5.05,5-5.06h114.19c3.92,0,5.46,1.6,5.46,5.61v73.28Z"
                  fill="black"/>
            <rect x="-44.5" y="-35.5" height="67" width="114" fill="white"/>
            <path d="m12,53h-69.35c-1.32,0-2.64,0-3.19-1.51a4.83,4.83,0,0,1,1.22-5c2.67-2,5.32-4,8-5.93a4.31,4.31,0,0,1,2.31-.77q49.28-.06,98.55,0c7.83,0,15.67,0,23.5,0a3.83,3.83,0,0,1,2.07.67c2.82,2,5.59,4.11,8.37,6.19,1.28,1,1.71,4.46.55,5.54a3.67,3.67,0,0,1-2.29.79c-5.74.07-11.49,0-17.23,0h-52.55Z"/>
            <rect x="3.5" y="47.5" rx="1" ry="2" height="2.5" width="20" fill="white"/>
            <path id="cross"
                  d="m-5, -10h12v-12h12v12h12v12h-12v12h-12v-12h-12Z"
                  fill="red"
                  stroke="black"
                  stroke-miterlimit="10"/>
        </g>
    </g>
</svg>
