<?xml version="1.0" encoding="UTF-8" standalone="no"?><!-- Created with Inkscape (http://www.inkscape.org/) -->
<svg xmlns="http://www.w3.org/2000/svg" width="210mm" height="297mm" viewBox="0 0 210 297" version="1.1">
    <defs id="defs3844"/>
    <g id="layer1">
        <path id="Cap-C"
              style="font-style:normal;font-variant:normal;font-weight:bold;font-stretch:normal;font-size:30.33888817px;line-height:0;font-family:'Source Code Pro';-inkscape-font-specification:'Source Code Pro Bold';letter-spacing:0px;word-spacing:0px;fill:none;fill-opacity:1;stroke:#000000;stroke-width:1.05833328;stroke-miterlimit:4;stroke-dasharray:none;stroke-opacity:1"
              d="m 16.848264,25.977153 q -1.850673,0 -3.519311,-0.637116 -1.6383,-0.667456 -2.912534,-1.941689 -1.2438942,-1.274233 -2.0023664,-3.155245 -0.7281333,-1.911349 -0.7281333,-4.399138 0,-2.45745 0.7281333,-4.3688 0.7281333,-1.941689 2.0023664,-3.2766001 1.274234,-1.3349111 3.00355,-2.0327055 1.729317,-0.6977944 3.701345,-0.6977944 1.881011,0 3.397955,0.788811 1.516944,0.7584723 2.518128,1.7293167 l -2.45745,2.7608383 q -0.697795,-0.637116 -1.547284,-1.0315217 -0.81915,-0.3944055 -1.911349,-0.3944055 -1.061862,0 -1.941689,0.4550833 -0.879828,0.4247449 -1.547284,1.2438939 -0.637116,0.81915 -1.001183,2.002367 -0.364067,1.183217 -0.364067,2.669822 0,3.064228 1.395589,4.763206 1.395589,1.668639 3.640667,1.668639 1.061861,0 1.941689,-0.485423 0.910166,-0.485422 1.6383,-1.274233 l 2.45745,2.700161 q -2.45745,2.912533 -6.492522,2.912533 z"/>
        <path id="h"
              style="font-style:normal;font-variant:normal;font-weight:bold;font-stretch:normal;font-size:30.33888817px;line-height:0;font-family:'Source Code Pro';-inkscape-font-specification:'Source Code Pro Bold';letter-spacing:0px;word-spacing:0px;fill:none;fill-opacity:1;stroke:#000000;stroke-width:1.05833328;stroke-miterlimit:4;stroke-dasharray:none;stroke-opacity:1"
              d="M 26.423502,25.613087 V 4.3455261 h 4.459816 v 5.2182888 l -0.242711,2.8821941 h 0.09102 q 0.849489,-0.879828 2.063044,-1.547283 1.213556,-0.697794 2.942873,-0.697794 2.548466,0 3.701344,1.638299 1.183216,1.6383 1.183216,4.490156 v 9.2837 h -4.459816 v -8.707261 q 0,-1.516945 -0.485422,-2.214739 -0.485422,-0.697794 -1.729317,-0.697794 -0.910167,0 -1.607961,0.394405 -0.667456,0.394406 -1.456267,1.183217 v 10.042172 z"/>
        <path id="a"
              style="font-style:normal;font-variant:normal;font-weight:bold;font-stretch:normal;font-size:30.33888817px;line-height:0;font-family:'Source Code Pro';-inkscape-font-specification:'Source Code Pro Bold';letter-spacing:0px;word-spacing:0px;fill:none;fill-opacity:1;stroke:#000000;stroke-width:1.05833328;stroke-miterlimit:4;stroke-dasharray:none;stroke-opacity:1"
              d="m 49.226495,25.977153 q -1.152877,0 -2.063044,-0.364066 -0.910167,-0.333728 -1.547283,-0.940506 -0.637117,-0.637116 -1.001184,-1.456266 -0.333727,-0.81915 -0.333727,-1.789995 0,-1.274233 0.5461,-2.214739 0.5461,-0.970844 1.729316,-1.6383 1.213556,-0.667455 3.094567,-1.061861 1.881011,-0.424744 4.550833,-0.576439 -0.121356,-1.031522 -0.910167,-1.607961 -0.758472,-0.576439 -2.305755,-0.576439 -1.0922,0 -2.214739,0.394406 -1.0922,0.364067 -2.366433,1.001183 l -1.577622,-2.912533 q 1.547283,-0.879828 3.306938,-1.456267 1.789995,-0.576438 3.731684,-0.576438 3.155244,0 4.975577,1.668638 1.820334,1.668639 1.820334,5.127272 v 8.616245 H 55.021223 L 54.687495,23.914109 H 54.56614 q -1.152878,0.879828 -2.518128,1.486605 -1.36525,0.576439 -2.821517,0.576439 z m 1.425928,-3.458633 q 1.001183,0 1.881011,-0.394405 0.879828,-0.424745 1.668639,-1.031523 v -2.487788 q -1.668639,0.09102 -2.760839,0.303388 -1.0922,0.212373 -1.729316,0.5461 -0.637117,0.303389 -0.910167,0.728134 -0.242711,0.424744 -0.242711,0.910166 0,0.728134 0.5461,1.0922 0.576439,0.333728 1.547283,0.333728 z"/>
        <path id="r"
              style="font-style:normal;font-variant:normal;font-weight:bold;font-stretch:normal;font-size:30.33888817px;line-height:0;font-family:'Source Code Pro';-inkscape-font-specification:'Source Code Pro Bold';letter-spacing:0px;word-spacing:0px;fill:none;fill-opacity:1;stroke:#000000;stroke-width:1.05833328;stroke-miterlimit:4;stroke-dasharray:none;stroke-opacity:1"
              d="M 64.141378,25.613087 V 10.564998 h 3.640667 l 0.364066,3.2766 h 0.09102 q 1.122539,-1.850672 2.700161,-2.7305 1.577622,-0.910166 3.397955,-0.910166 1.001184,0 1.607961,0.151694 0.637117,0.151694 1.304573,0.455083 l -0.910167,3.731684 q -0.697794,-0.212373 -1.274233,-0.303389 -0.5461,-0.121356 -1.395589,-0.121356 -1.395589,0 -2.760839,0.81915 -1.334911,0.81915 -2.305755,2.851856 v 7.827433 z"/>
        <path id="t"
              style="font-style:normal;font-variant:normal;font-weight:bold;font-stretch:normal;font-size:30.33888817px;line-height:0;font-family:'Source Code Pro';-inkscape-font-specification:'Source Code Pro Bold';letter-spacing:0px;word-spacing:0px;fill:none;fill-opacity:1;stroke:#000000;stroke-width:1.05833328;stroke-miterlimit:4;stroke-dasharray:none;stroke-opacity:1"
              d="m 90.585038,25.977153 q -1.789994,0 -3.033889,-0.485422 -1.243894,-0.485422 -2.032705,-1.334911 -0.758472,-0.879828 -1.0922,-2.093383 -0.333728,-1.213556 -0.333728,-2.700161 V 14.05397 h -3.792361 v -3.306939 l 4.004733,-0.182033 0.576439,-4.6115108 h 3.671006 v 4.6115108 h 6.371166 v 3.488972 h -6.371166 v 5.278967 q 0,1.729316 0.758472,2.45745 0.758472,0.697794 2.427111,0.697794 0.849489,0 1.547283,-0.151694 0.728133,-0.151695 1.425928,-0.394406 l 0.788811,3.215922 q -1.001183,0.303389 -2.214739,0.5461 -1.183216,0.27305 -2.700161,0.27305 z"/>
        <path id="Cap-I"
              style="font-style:normal;font-variant:normal;font-weight:bold;font-stretch:normal;font-size:30.33888817px;line-height:0;font-family:'Source Code Pro';-inkscape-font-specification:'Source Code Pro Bold';letter-spacing:0px;word-spacing:0px;fill:none;fill-opacity:1;stroke:#000000;stroke-width:1.05833328;stroke-miterlimit:4;stroke-dasharray:none;stroke-opacity:1"
              d="m 117.44159,25.613087 v -3.762022 h 4.61151 V 9.5941537 h -4.61151 V 5.8321316 h 13.71318 v 3.7620221 h -4.61151 V 21.851065 h 4.61151 v 3.762022 z"/>
        <path id="t2"
              style="font-style:normal;font-variant:normal;font-weight:bold;font-stretch:normal;font-size:30.33888817px;line-height:0;font-family:'Source Code Pro';-inkscape-font-specification:'Source Code Pro Bold';letter-spacing:0px;word-spacing:0px;fill:none;fill-opacity:1;stroke:#000000;stroke-width:1.05833328;stroke-miterlimit:4;stroke-dasharray:none;stroke-opacity:1"
              d="m 145.15949,25.977153 q -1.79,0 -3.03389,-0.485422 -1.2439,-0.485422 -2.03271,-1.334911 -0.75847,-0.879828 -1.0922,-2.093383 -0.33373,-1.213556 -0.33373,-2.700161 V 14.05397 h -3.79236 v -3.306939 l 4.00474,-0.182033 0.57643,-4.6115108 h 3.67101 v 4.6115108 h 6.37117 v 3.488972 h -6.37117 v 5.278967 q 0,1.729316 0.75847,2.45745 0.75847,0.697794 2.42711,0.697794 0.84949,0 1.54729,-0.151694 0.72813,-0.151695 1.42592,-0.394406 l 0.78882,3.215922 q -1.00119,0.303389 -2.21474,0.5461 -1.18322,0.27305 -2.70016,0.27305 z"/>
        <path id="Cap-M"
              style="font-style:normal;font-variant:normal;font-weight:bold;font-stretch:normal;font-size:30.33888817px;line-height:0;font-family:'Source Code Pro';-inkscape-font-specification:'Source Code Pro Bold';letter-spacing:0px;word-spacing:0px;fill:none;fill-opacity:1;stroke:#000000;stroke-width:1.05833328;stroke-miterlimit:4;stroke-dasharray:none;stroke-opacity:1"
              d="M 171.53062,25.613087 V 5.8321316 h 4.67219 l 1.94169,7.0082834 0.66745,2.7305 h 0.12136 l 0.66745,-2.7305 1.94169,-7.0082834 h 4.67219 V 25.613087 h -3.76202 v -6.128456 q 0,-0.81915 0.0607,-2.063044 0.0607,-1.243895 0.15169,-2.548467 0.091,-1.304572 0.18203,-2.518127 0.12136,-1.243895 0.18204,-2.032706 h -0.091 l -1.51694,5.278967 -1.51695,4.763205 h -2.1844 l -1.54728,-4.763205 -1.42593,-5.278967 h -0.091 q 0.091,0.788811 0.18204,2.032706 0.091,1.213555 0.18203,2.518127 0.091,1.304572 0.15169,2.548467 0.0607,1.243894 0.0607,2.063044 v 6.128456 z"/>
        <path id="Cap-D"
              style="font-style:normal;font-variant:normal;font-weight:bold;font-stretch:normal;font-size:30.33888817px;line-height:0;font-family:'Source Code Pro';-inkscape-font-specification:'Source Code Pro Bold';letter-spacing:0px;word-spacing:0px;fill:none;fill-opacity:1;stroke:#000000;stroke-width:1.05833328;stroke-miterlimit:4;stroke-dasharray:none;stroke-opacity:1"
              d="M 190.08617,25.613087 V 5.8321316 h 5.461 q 2.15406,0 3.91371,0.5764389 1.75966,0.5764389 3.00355,1.7899944 1.2439,1.1832166 1.91135,3.0338891 0.6978,1.850672 0.6978,4.399138 0,2.548467 -0.66746,4.429478 -0.66745,1.881011 -1.91135,3.124906 -1.21355,1.213555 -2.91253,1.820333 -1.69898,0.606778 -3.76202,0.606778 z m 4.49015,-3.610328 h 0.72814 q 1.15287,0 2.09338,-0.333728 0.97084,-0.333728 1.6383,-1.061861 0.69779,-0.758472 1.06186,-1.972028 0.39441,-1.213555 0.39441,-3.00355 0,-1.759655 -0.39441,-2.942872 -0.36407,-1.213555 -1.06186,-1.91135 -0.66746,-0.728133 -1.6383,-1.0315218 -0.94051,-0.3033889 -2.09338,-0.3033889 h -0.72814 z"/>
    </g>
</svg>
